# AST/ASF file generated using VICON BodyLanguage
# -----------------------------------------------
:version 1.10
:name VICON
:units
  mass 1.0
  length 0.45
  angle deg
:documentation
   .ast/.asf automatically generated from VICON data using
   VICON BodyBuilder and BodyLanguage model FoxedUp or BRILLIANT.MOD
:root
   order TX TY TZ RX RY RZ
   axis XYZ
   position 0 0 0  
   orientation 0 0 0 
:bonedata
  begin
     id 1 
     name lhipjoint
     direction 0.61886 -0.69539 0.365302 
     length 2.20474 
     axis 0 0 0  XYZ
  end
  begin
     id 2 
     name lfemur
     direction 0.34202 -0.939693 0  
     length 6.65149  
     axis 0 0 20  XYZ
    dof rx ry rz
    limits (-160.0 20.0)
           (-70.0 70.0)
           (-60.0 70.0)
  end
  begin
     id 3 
     name ltibia
     direction 0.34202 -0.939693 0   
     length 6.35814   
     axis 0 0 20   XYZ
    dof rx
    limits (-10.0 170.0)
  end
  begin
     id 4 
     name lfoot
     direction 0.101224 -0.278109 0.955201   
     length 2.18766   
     axis -90 7.62852e-016 20   XYZ
    dof rx rz
    limits (-45.0 90.0)
           (-70.0 20.0)
  end
  begin
     id 5 
     name ltoes
     direction 1.53524e-011 -4.21877e-011 1   
     length 1.09206   
     axis -90 7.62852e-016 20   XYZ
    dof rx
    limits (-90.0 20.0)
  end
  begin
     id 6 
     name rhipjoint
     direction -0.600207 -0.708087 0.371972   
     length 2.1652  
     axis 0 0 0  XYZ 
  end
  begin
     id 7 
     name rfemur
     direction -0.34202 -0.939693 0   
     length 6.54691   
     axis 0 0 -20   XYZ
    dof rx ry rz
    limits (-160.0 20.0)
           (-70.0 70.0)
           (-70.0 60.0)
  end
  begin
     id 8 
     name rtibia
     direction -0.34202 -0.939693 0   
     length 6.37474   
     axis 0 0 -20   XYZ
    dof rx
    limits (-10.0 170.0)
 end
 begin
     id 9 
     name rfoot
     direction -0.111266 -0.3057 0.945604   
     length 2.00903  
     axis -90 -7.62852e-016 -20   XYZ
    dof rx rz
    limits (-45.0 90.0)
           (-20.0 70.0)
  end
  begin
     id 10 
     name rtoes
     direction -1.5362e-011 -4.21913e-011 1   
     length 1.00221   
     axis -90 -7.62852e-016 -20   XYZ
    dof rx
    limits (-90.0 20.0)
  end
  begin
     id 11 
     name lowerback
     direction -0.0224561 0.999731 -0.00577314   
     length 2.10409   
     axis 0 0 0   XYZ
    dof rx ry rz
    limits (-20.0 45.0)
           (-30.0 30.0)
           (-30.0 30.0)
  end
  begin
     id 12 
     name upperback
     direction 0.0213126 0.999185 -0.0342817   
     length 2.09783   
     axis 0 0 0   XYZ
    dof rx ry rz
    limits (-20.0 45.0)
           (-30.0 30.0)
           (-30.0 30.0)
  end
  begin
     id 13 
     name thorax
     direction 0.0312356 0.999036 -0.0308451   
     length 2.09788   
     axis 0 0 0   XYZ
    dof rx ry rz
    limits (-20.0 45.0)
           (-30.0 30.0)
           (-30.0 30.0)
  end
  begin
     id 14 
     name lowerneck
     direction -0.0114419 0.996481 0.0830329   
     length 1.38575   
     axis 0 0 0   XYZ
    dof rx ry rz
    limits (-20.0 45.0)
           (-30.0 30.0)
           (-30.0 30.0)
  end
  begin
     id 15 
     name upperneck
     direction -0.0075675 0.996187 -0.0869092   
     length 1.39401   
     axis 0 0 0   XYZ
    dof rx ry rz
    limits (-20.0 45.0)
           (-30.0 30.0)
           (-30.0 30.0)
  end
  begin
     id 16
     name head
     direction -0.00222073 0.999264 -0.0382974  
     length 1.3964  
     axis 0 0 0   XYZ
    dof rx ry rz
    limits (-20.0 45.0)
           (-30.0 30.0)
           (-30.0 30.0)
  end
  begin
     id 17 
     name lclavicle
     direction 0.965962 0.222138 0.132556  
     length 2.81514  
     axis 0 0 0   XYZ
    dof ry rz
    limits (-20.0 10.0)
           (0.0 20.0)
  end
  begin
     id 18 
     name lhumerus
     direction 1 -4.48972e-011 7.03471e-018   
     length 4.47366   
     axis 180 -30 -90   XYZ
    dof rx ry rz
    limits (-60.0 90.0)
           (-90.0 90.0)
           (-90.0 90.0)
  end
  begin
     id 19
     name lradius
     direction 1 -4.48951e-011 -6.22192e-028   
     length 3.19948   
     axis 180 -30 -90   XYZ
    dof rx
    limits (-10.0 170.0)
  end
  begin
     id 20
     name lwrist
     direction 1 -4.48967e-011 -1.24264e-027   
     length 1.59974   
     axis 1.40095e-015 90 90   XYZ
    dof ry
    limits (-180.0 0.0)
 end
  begin
     id 21 
     name lhand
     direction 1 -4.4897e-011 -2.48528e-027   
     length 0.492667   
     axis 1.58582e-015 90 90   XYZ
    dof rx rz
    limits (-90.0 90.0)
           (-45.0 45.0)
  end
  begin
     id 22 
     name lfingers
     direction 1 -4.48996e-011 -4.97056e-027   
     length 0.397201   
     axis 3.17164e-015 90 90   XYZ
    dof rx
    limits (0.0 90.0)
  end
  begin
     id 23
     name lthumb
     direction 0.707107 -6.34981e-011 0.707107   
     length 0.570303   
     axis -90 45 2.85299e-015   XYZ
    dof rx rz
    limits (-45.0 45.0)
           (-45.0 45.0)
  end
  begin
     id 24 
     name rclavicle
     direction -0.961164 0.229034 0.153972   
     length 3.09348  
     axis 0 0 0   XYZ 
    dof ry rz
    limits (-10.0 20.0)
           (-20.0 0.0)
  end
  begin
     id 25 
     name rhumerus
     direction -1 -4.48971e-011 -9.06263e-028  
     length 4.3269   
     axis 180 30 90   XYZ
    dof rx ry rz
    limits (-90.0 60.0)
           (-90.0 90.0)
           (-90.0 90.0)
  end
  begin
     id 26 
     name rradius
     direction -1 -4.48953e-011 1.44659e-027   
     length 3.1896   
     axis 180 30 90   XYZ
    dof rx
    limits (-10.0 170.0)
  end
  begin
     id 27 
     name rwrist
     direction -1 -4.48988e-011 -1.24264e-027   
     length 1.5948   
     axis 1.40095e-015 -90 -90   XYZ
    dof ry
    limits (-180.0 0.0)
  end
  begin
     id 28
     name rhand
     direction -1 -4.49033e-011 -2.48528e-027   
     length 0.464496   
     axis 1.58582e-015 -90 -90   XYZ
    dof rx rz
    limits (-90.0 90.0)
           (-45.0 45.0)
  end
  begin
     id 29
     name rfingers
     direction -1 -4.48905e-011 -4.97056e-027   
     length 0.374489   
     axis 3.17164e-015 -90 -90   XYZ
    dof rx
    limits (0.0 90.0)
  end
  begin
     id 30
     name rthumb
     direction -0.707107 -6.34909e-011 0.707107   
     length 0.537693   
     axis -90 -45 -2.85299e-015   XYZ
    dof rx rz
    limits (-45.0 45.0)
           (-45.0 45.0)
  end
:hierarchy
  begin
    root lhipjoint rhipjoint lowerback
    lhipjoint lfemur
    lfemur ltibia
    ltibia lfoot
    lfoot ltoes
    rhipjoint rfemur
    rfemur rtibia
    rtibia rfoot
    rfoot rtoes
    lowerback upperback
    upperback thorax
    thorax lowerneck lclavicle rclavicle
    lowerneck upperneck
    upperneck head
    lclavicle lhumerus
    lhumerus lradius
    lradius lwrist
    lwrist lhand lthumb
    lhand lfingers
    rclavicle rhumerus
    rhumerus rradius
    rradius rwrist
    rwrist rhand rthumb
    rhand rfingers
  end

#!OML:ASF G:\acrobat\cartwheel_test 2\Patient 1\Session 2\acrobat4.ASF
:FULLY-SPECIFIED
:DEGREES
418
root 8.16689 19.367 17.6308 -255.174 11.7649 12.185
lowerback 25.7076 8.77919 11.5366
upperback -10.6283 14.4984 -13.3029
thorax -20.6418 3.18777 -30.0893
lowerneck -4.29188 -16.0427 20.5178
upperneck 46.7885 -24.1711 2.08391
head 16.2486 -5.30268 -4.64705
rclavicle 1.94014e-013 0
rhumerus -58.5143 -36.2349 -43.128
rradius 83.7513
rwrist 21.8926
rhand -40.9452 -1163.19
rfingers 7.12502
rthumb -13.8788 112.706
lclavicle 1.94014e-013 0
lhumerus 48.9339 -79.3897 24.4648
lradius 67.9682
lwrist 4.67188
lhand -57.1594 -181.825
lfingers 7.12502
lthumb -29.4437 -569.512
rfemur -46.0532 19.027 10.3804
rtibia 45.406
rfoot 9.79401 -9.71905
rtoes 17.7262
lfemur -34.2098 -1.51518 -24.9053
ltibia 41.0055
lfoot 171.246 -184.175
ltoes -21.492
419
root 8.17352 19.2326 17.4207 -257.843 11.9509 11.8216
lowerback 24.862 7.92122 11.1585
upperback -9.38436 12.7515 -13.8059
thorax -19.3981 2.79752 -29.4802
lowerneck -6.9154 -14.6205 24.1586
upperneck 46.4732 -23.638 0.923883
head 16.0629 -4.80206 -5.79875
rclavicle -1.33583e-013 7.31528e-014
rhumerus -53.6508 -37.3486 -48.4719
rradius 81.8648
rwrist 22.5891
rhand -41.0019 -1162.39
rfingers 7.12502
rthumb -13.9335 111.905
lclavicle -1.33583e-013 7.31528e-014
lhumerus 49.4343 -76.488 21.0912
lradius 68.3163
lwrist 5.43492
lhand -57.0955 -182.758
lfingers 7.12502
lthumb -29.3827 -570.455
rfemur -47.0667 17.5706 11.1255
rtibia 45.3227
rfoot 8.9145 -7.84121
rtoes 1.15761
lfemur -35.5968 -1.89914 -24.653
ltibia 41.0396
lfoot 171.248 -184.18
ltoes -22.0617
420
root 8.17813 19.0966 17.2008 -260.764 12.2239 11.1853
lowerback 24.5298 7.43514 10.928
upperback -8.40621 11.697 -14.6085
thorax -18.4161 2.55174 -29.9099
lowerneck -9.43948 -13.6073 28.2818
upperneck 46.3078 -23.8487 -0.11728
head 15.9109 -4.47727 -6.9475
rclavicle -1.145e-013 1.90833e-014
rhumerus -50.3262 -39.2337 -52.677
rradius 79.8973
rwrist 23.4906
rhand -41.0305 -1161.28
rfingers 7.12502
rthumb -13.9611 110.791
lclavicle -1.145e-013 1.90833e-014
lhumerus 55.1469 -74.5696 12.761
lradius 68.5129
lwrist 7.03366
lhand -57.1615 -183.198
lfingers 7.12502
lthumb -29.4457 -570.884
rfemur -48.1674 17.0349 11.6104
rtibia 45.168
rfoot 8.76646 -6.61014
rtoes 5.24356
lfemur -37.0107 -2.41994 -24.1595
ltibia 41.1354
lfoot 171.414 -183.775
ltoes -23.1878
421
root 8.18405 18.9579 16.9677 -263.887 12.5413 10.5052
lowerback 24.7548 7.22762 10.9674
upperback -7.78619 11.2272 -15.576
thorax -17.8915 2.37114 -31.307
lowerneck -11.6307 -12.9846 32.5136
upperneck 46.2446 -24.6303 -1.00507
head 15.7153 -4.32946 -7.97249
rclavicle 9.22361e-014 9.22361e-014
rhumerus -48.8893 -41.309 -55.6098
rradius 78.1244
rwrist 24.0589
rhand -41.1113 -1160.21
rfingers 7.12502
rthumb -14.0389 109.721
lclavicle 9.22361e-014 9.22361e-014
lhumerus 62.2295 -73.482 3.34585
lradius 68.5689
lwrist 8.41576
lhand -57.6085 -184.182
lfingers 7.12502
lthumb -29.8723 -571.793
rfemur -49.3121 17.1997 11.8516
rtibia 44.9954
rfoot 8.27687 -6.76307
rtoes 2.64239
lfemur -38.3894 -3.14661 -23.427
ltibia 41.2121
lfoot 170.362 -183.422
ltoes -24.5178
422
root 8.19364 18.8168 16.7172 -267.171 12.7841 9.87916
lowerback 25.4642 7.13899 11.085
upperback -7.55698 11.0399 -16.4654
thorax -18.0401 2.10683 -33.1211
lowerneck -13.0366 -12.729 36.2518
upperneck 46.158 -25.5674 -1.68185
head 15.4006 -4.31977 -8.70824
rclavicle 6.99722e-014 1.20861e-013
rhumerus -48.8628 -42.8336 -57.4084
rradius 76.4215
rwrist 24.2034
rhand -41.2217 -1159.13
rfingers 7.12502
rthumb -14.1453 108.631
lclavicle 6.99722e-014 1.20861e-013
lhumerus 68.8258 -73.155 -5.39594
lradius 68.6654
lwrist 9.43252
lhand -58.2851 -186.863
lfingers 7.12502
lthumb -30.5178 -574.355
rfemur -50.4752 17.2508 12.0208
rtibia 44.8235
rfoot 7.24199 -7.2146
rtoes 4.70184
lfemur -39.7824 -3.82151 -22.7154
ltibia 41.2971
lfoot 169.599 -182.599
ltoes -27.2161
423
root 8.20472 18.669 16.4496 -270.651 12.882 9.16749
lowerback 26.567 7.21733 11.0447
upperback -7.66038 11.1057 -17.1217
thorax -18.79 1.79769 -34.848
lowerneck -13.6976 -12.8966 39.0167
upperneck 45.9922 -26.5333 -2.16497
head 14.979 -4.48052 -9.12945
rclavicle 1.90833e-014 -3.33958e-014
rhumerus -49.675 -43.9001 -57.9571
rradius 74.5167
rwrist 24.3206
rhand -41.4454 -1157.63
rfingers 7.12502
rthumb -14.3608 107.115
lclavicle 1.90833e-014 -3.33958e-014
lhumerus 76.7628 -73.364 -14.8133
lradius 68.3633
lwrist 10.6628
lhand -58.9777 -191.95
lfingers 7.12502
lthumb -31.1781 -579.317
rfemur -51.6348 17.2505 12.0507
rtibia 44.6679
rfoot 5.08667 -8.17469
rtoes -0.942541
lfemur -41.1796 -3.87841 -22.2987
ltibia 41.3838
lfoot 169.002 -181.74
ltoes -26.3383
